<?xml version="1.0" standalone="no"?>
<!DOCTYPE svg PUBLIC "-//W3C//DTD SVG 20010904//EN"
 "http://www.w3.org/TR/2001/REC-SVG-20010904/DTD/svg10.dtd">
<svg version="1.0" xmlns="http://www.w3.org/2000/svg"
 width="200.000000pt" height="200.000000pt" viewBox="0 0 200.000000 200.000000"
 preserveAspectRatio="xMidYMid meet">

<g transform="translate(0.000000,200.000000) scale(0.100000,-0.100000)"
fill="#ffffff" stroke="none">
<path d="M981 1869 c-14 -5 -43 -7 -66 -4 -26 4 -63 1 -100 -10 -110 -30 -125
-33 -131 -24 -9 15 -34 10 -34 -6 0 -9 10 -15 26 -15 43 0 22 -24 -34 -39 -32
-8 -52 -19 -52 -28 0 -8 -5 -11 -12 -7 -7 4 -8 3 -4 -4 4 -7 1 -12 -7 -12 -8
0 -25 -17 -38 -37 -21 -34 -23 -36 -27 -16 -7 43 26 88 84 118 33 17 51 32 46
37 -27 27 -146 -82 -167 -152 -11 -37 -42 -67 -112 -106 -80 -44 -141 -106
-176 -177 -29 -60 -65 -193 -55 -203 12 -11 28 7 28 30 0 13 11 57 24 97 13
41 26 80 28 88 9 36 110 129 150 136 18 4 13 -5 -24 -43 -52 -55 -99 -115
-102 -134 -1 -7 -10 -27 -19 -45 -40 -75 -65 -293 -34 -293 9 0 9 -2 -1 -8 -9
-6 -10 -20 -3 -53 21 -105 34 -155 43 -166 5 -7 5 -14 -1 -17 -24 -15 -67 118
-76 237 -2 26 -7 52 -10 57 -3 6 -2 10 2 10 5 0 9 20 9 45 -1 46 -11 59 -20
28 -4 -17 -10 -142 -7 -153 1 -3 3 -30 5 -60 4 -64 26 -171 35 -166 3 3 15 -3
26 -11 20 -15 19 -15 -3 -10 -16 4 -22 2 -19 -6 31 -79 40 -97 48 -97 5 0 8
-5 6 -11 -1 -6 6 -16 16 -22 14 -10 20 -9 27 3 6 10 6 16 -1 18 -6 3 -5 10 2
19 16 19 -5 35 -38 30 -22 -4 -27 11 -8 25 6 5 5 8 -3 8 -8 0 -6 8 7 22 11 12
25 36 31 54 6 19 17 33 23 31 15 -3 12 13 -18 88 -13 33 -26 78 -30 100 -4 22
-14 46 -23 53 -13 10 -13 12 -1 12 10 0 15 15 16 55 7 150 77 293 161 330 37
17 62 48 62 77 0 9 -3 9 -12 0 -7 -7 -16 -12 -22 -12 -5 0 -2 6 9 13 10 8 15
19 11 25 -4 7 -2 12 3 12 6 0 11 -8 11 -17 0 -14 3 -14 23 4 12 11 35 27 51
34 18 8 33 26 39 44 18 56 105 123 122 94 4 -5 2 -9 -4 -9 -17 0 -71 -51 -71
-68 0 -11 8 -7 28 14 15 16 36 31 47 32 24 4 36 14 39 33 9 55 76 98 161 103
30 2 52 -1 49 -6 -3 -4 4 -8 15 -8 11 0 23 5 27 11 12 20 118 6 158 -22 34
-23 48 -49 26 -49 -6 0 -24 10 -40 22 -29 21 -78 27 -102 11 -8 -5 4 -10 32
-13 35 -4 47 -10 57 -30 12 -24 46 -36 119 -43 13 -1 19 -7 17 -14 -3 -7 1
-13 8 -13 24 0 104 -45 99 -55 -7 -15 -61 -7 -82 12 -12 11 -45 19 -96 23 -42
3 -91 14 -109 23 -45 24 -115 32 -143 17 -12 -6 -58 -13 -101 -14 -59 -1 -83
-5 -96 -18 -22 -22 -8 -36 18 -19 12 7 38 11 58 10 20 -2 42 0 49 5 7 4 12 3
12 -2 0 -18 -26 -31 -69 -34 -26 -2 -46 -9 -49 -17 -3 -10 2 -11 19 -5 26 8
58 8 66 0 3 -2 -8 -21 -24 -40 -20 -26 -36 -36 -55 -36 -16 0 -28 -4 -28 -10
0 -5 -7 -7 -16 -3 -18 6 -62 -31 -75 -64 -4 -12 -24 -29 -42 -37 -19 -8 -38
-19 -41 -25 -10 -16 6 -14 32 4 16 12 26 13 42 5 21 -11 28 -40 10 -40 -5 0
-10 5 -10 12 0 9 -3 9 -12 0 -8 -8 -8 -15 2 -27 19 -22 39 -18 52 11 10 21 9
31 -5 56 -26 44 3 80 77 93 33 7 37 5 46 -21 13 -32 7 -54 -14 -54 -10 0 -13
6 -10 15 9 21 -19 19 -39 -3 -18 -20 -23 -37 -8 -28 5 4 7 -3 4 -13 -3 -11 4
-28 16 -40 16 -16 25 -18 52 -11 18 5 44 21 59 35 30 28 40 31 40 11 0 -7 -19
-30 -43 -49 -32 -26 -55 -36 -90 -39 -25 -3 -44 -1 -41 4 3 4 -2 8 -10 8 -18
0 -32 -23 -63 -100 -12 -30 -22 -50 -22 -44 -2 20 -75 -11 -87 -37 -18 -38
-24 -108 -10 -122 9 -9 9 -17 0 -35 -16 -32 -25 -14 -31 62 -4 46 0 73 15 111
10 28 17 56 15 63 -5 13 21 7 43 -10 17 -12 61 7 68 30 11 34 -10 70 -46 80
-22 5 -34 16 -39 33 l-6 24 -7 -25 c-4 -14 -20 -33 -36 -42 -17 -9 -30 -22
-30 -27 0 -6 15 -2 33 9 56 35 117 22 117 -23 0 -15 -3 -17 -14 -8 -38 32
-115 -12 -137 -78 -15 -43 -15 -193 0 -247 5 -21 15 -60 22 -86 7 -31 18 -50
30 -53 11 -4 19 -11 19 -16 0 -6 -8 -6 -20 1 -10 6 -24 9 -30 8 -16 -4 -60
118 -75 205 -3 20 -10 37 -16 37 -13 0 -3 -78 13 -98 11 -13 11 -14 -1 -7 -11
6 -12 1 -6 -31 5 -21 9 -52 11 -69 1 -16 7 -29 13 -28 6 2 11 -6 11 -18 0 -12
-4 -17 -11 -14 -6 4 -5 -2 3 -14 10 -17 14 -18 21 -6 4 9 13 13 18 10 5 -4 7
-11 4 -16 -3 -5 1 -6 9 -3 14 5 17 -18 4 -32 -4 -3 -4 -12 -2 -19 3 -7 1 -15
-3 -18 -5 -3 -8 -27 -6 -54 6 -77 5 -86 -9 -95 -9 -7 -7 -8 8 -5 34 7 45 -3
53 -52 1 -3 8 4 16 15 9 11 13 13 10 4 -4 -11 2 -16 21 -18 15 -1 34 -8 42
-15 13 -9 14 -9 8 1 -4 6 -3 12 3 12 6 0 17 -13 26 -30 15 -29 35 -40 35 -19
0 5 -4 8 -9 4 -6 -3 -8 4 -6 16 2 12 -3 35 -11 51 -31 60 -11 196 32 212 42
16 82 -35 54 -69 -17 -21 -36 -19 -53 5 -14 19 -14 19 -26 -6 -10 -22 -9 -31
5 -51 14 -23 21 -25 61 -20 59 6 89 37 108 110 19 73 19 101 0 117 -9 7 -13
15 -10 18 3 3 0 11 -6 18 -8 10 -6 19 5 36 9 12 16 31 16 41 0 9 7 20 15 23 8
4 12 10 9 15 -3 5 -2 9 3 9 4 0 26 34 48 76 41 77 110 158 145 169 13 4 19 15
19 33 0 49 4 61 20 60 9 0 26 3 39 7 16 6 22 3 22 -9 0 -22 5 -20 48 13 20 16
47 32 60 36 33 10 27 25 -10 26 -18 1 -37 1 -43 0 -5 -1 1 8 15 20 18 15 32
19 55 14 61 -12 81 -12 109 2 16 8 42 13 57 11 17 -3 29 0 30 6 0 6 4 1 10
-12 8 -22 13 -23 63 -17 47 6 58 4 85 -16 17 -12 31 -29 31 -36 0 -13 34 -36
42 -28 5 5 26 -36 48 -89 7 -20 14 -26 21 -19 7 7 7 17 1 29 -6 11 -16 34 -22
52 -7 18 -25 40 -39 48 -15 9 -36 29 -47 45 -23 34 -56 49 -106 47 -21 -1 -48
7 -64 17 -21 14 -38 16 -78 10 -28 -3 -80 -8 -115 -9 -38 -2 -67 -8 -69 -14
-2 -7 -12 -12 -22 -12 -10 0 -21 -4 -25 -9 -3 -5 -20 -13 -38 -16 -76 -17
-150 -80 -163 -139 -3 -17 -19 -49 -36 -71 -16 -22 -35 -49 -42 -59 -20 -29
-33 -12 -40 53 -7 62 5 134 33 186 8 17 14 35 12 40 -1 6 1 7 5 3 4 -4 16 3
28 17 12 13 43 33 69 44 27 12 51 29 54 39 3 12 21 23 49 30 30 8 43 16 38 24
-5 7 -2 9 8 5 10 -3 20 3 28 19 8 13 18 24 24 24 19 -1 48 -28 41 -39 -4 -7 7
-11 29 -11 20 0 36 -4 36 -10 0 -5 -9 -10 -19 -10 -17 0 -31 -18 -31 -40 0
-12 40 -24 65 -21 29 4 57 35 60 66 7 56 -46 155 -83 155 -7 0 -27 14 -44 30
-17 17 -33 29 -36 26 -3 -3 -21 15 -40 39 -19 25 -49 54 -66 65 -38 23 -102
32 -135 19z m-8 -194 c22 -4 51 -18 65 -30 21 -19 30 -21 49 -12 17 8 30 7 48
-3 14 -7 25 -16 25 -20 0 -12 -48 -60 -60 -60 -17 0 -11 38 8 44 9 3 4 4 -13
2 -20 -3 -38 3 -58 20 -34 28 -91 32 -125 8 -14 -10 -32 -14 -48 -10 -24 6
-35 28 -11 24 6 -2 11 3 9 10 -1 8 2 11 6 8 5 -3 20 5 33 17 13 12 26 19 29
16 3 -4 22 -10 43 -14z m278 -50 c13 -13 36 -25 50 -25 14 0 34 -7 45 -15 18
-13 16 -14 -22 -15 -27 0 -50 7 -68 21 -15 12 -38 22 -52 22 -26 0 -39 11 -29
27 11 18 53 10 76 -15z m-231 -16 c0 -5 5 -7 12 -3 6 4 8 3 4 -4 -3 -6 -2 -13
4 -17 19 -12 11 -61 -15 -85 -14 -13 -25 -21 -25 -17 0 3 -13 2 -29 -3 -24 -7
-28 -5 -24 10 5 19 -21 50 -43 50 -23 0 -16 37 12 59 28 22 104 30 104 10z
m-150 -52 c0 -13 -40 -37 -60 -37 -17 0 -11 28 8 39 24 15 52 13 52 -2z m34
-33 c27 -10 17 -74 -11 -74 -12 0 -13 3 -4 14 15 18 -8 37 -37 29 -24 -6 -29
6 -10 25 13 13 37 15 62 6z m444 -10 c-5 -29 -35 -41 -55 -22 -16 16 -15 18 8
27 36 15 51 13 47 -5z m-263 -174 c3 -5 1 -10 -4 -10 -6 0 -11 5 -11 10 0 6 2
10 4 10 3 0 8 -4 11 -10z m-276 -67 c-20 -88 -3 -234 34 -280 15 -20 -7 -15
-23 5 -29 34 -44 97 -45 195 -1 53 3 97 7 97 5 0 6 5 3 10 -3 6 3 10 13 10 18
0 19 -4 11 -37z m-67 -101 c-4 -82 -2 -100 12 -111 18 -15 22 -36 4 -25 -8 5
-9 2 -4 -12 4 -10 10 -31 13 -47 3 -15 10 -30 14 -33 5 -3 9 -10 9 -15 0 -17
-25 14 -39 49 -7 17 -21 32 -30 32 -14 0 -14 2 -1 10 8 5 11 10 5 10 -11 0
-12 210 -1 228 18 29 23 5 18 -86z m-35 14 c4 -5 -7 -5 -26 -1 -29 6 -33 5
-28 -9 7 -17 -17 -23 -28 -7 -14 23 62 38 82 17z m-114 -66 c8 0 8 -3 -1 -12
-19 -19 -16 -98 4 -98 9 0 12 5 8 13 -5 7 0 6 11 -3 17 -14 18 -13 12 3 -4 11
-2 17 8 17 8 0 15 2 15 4 0 2 3 12 7 22 4 11 3 15 -4 11 -6 -4 -18 0 -27 8
-14 14 -13 18 5 36 11 11 25 19 31 17 6 -2 4 -11 -6 -21 -10 -9 -15 -18 -12
-18 3 -1 10 -2 15 -3 15 -2 19 -9 25 -38 2 -15 0 -28 -5 -30 -6 -2 -7 -11 -4
-21 4 -9 11 -15 15 -12 4 3 14 -3 21 -12 10 -12 10 -14 2 -9 -8 4 -13 1 -13
-8 0 -9 7 -16 16 -16 15 0 84 -50 84 -60 0 -3 -9 -6 -20 -7 -11 -1 -18 2 -15
8 4 5 -1 9 -9 9 -10 0 -16 9 -16 23 0 17 -2 19 -10 7 -6 -10 -4 -20 6 -32 9
-9 13 -21 9 -27 -3 -6 0 -9 8 -5 8 3 17 -1 20 -9 4 -12 0 -13 -21 -8 -19 5
-31 3 -42 -9 -8 -8 -12 -11 -8 -6 8 10 -1 36 -12 36 -4 0 -7 -7 -6 -16 0 -9
-7 -21 -17 -28 -15 -9 -20 -8 -28 7 -14 24 -28 21 -21 -5 5 -21 4 -22 -12 -9
-11 9 -15 23 -12 35 5 21 5 21 -9 2 -8 -11 -15 -23 -15 -27 0 -13 -34 -19 -62
-11 -22 5 -25 10 -17 22 8 11 12 12 16 3 6 -15 33 -17 33 -3 0 5 -3 9 -7 9
-21 -3 -26 2 -13 12 13 9 12 10 -2 5 -10 -3 -25 -3 -33 0 -13 5 -12 8 1 22 13
13 17 13 25 1 5 -8 9 -9 9 -3 0 15 -25 36 -33 27 -4 -3 -7 -1 -7 5 0 17 37 15
44 -3 3 -8 5 -18 5 -21 -1 -8 22 -24 34 -24 5 0 1 7 -7 16 -20 19 -20 22 -1
40 13 14 17 14 31 0 20 -21 37 -10 31 20 -2 15 1 28 10 33 12 6 12 9 1 19 -23
19 -40 -1 -28 -33 6 -15 8 -30 6 -32 -10 -10 -24 8 -30 37 -3 17 -9 29 -13 27
-11 -7 -9 136 2 153 8 12 11 11 13 -7 2 -13 8 -23 15 -23z m37 9 c0 -6 -4 -7
-10 -4 -5 3 -10 11 -10 16 0 6 5 7 10 4 6 -3 10 -11 10 -16z m-185 -39 c3 -5
1 -10 -4 -10 -6 0 -11 5 -11 10 0 6 2 10 4 10 3 0 8 -4 11 -10z m185 -30 c0
-5 -4 -10 -9 -10 -6 0 -13 5 -16 10 -3 6 1 10 9 10 9 0 16 -4 16 -10z m164
-66 c5 -14 4 -15 -9 -4 -17 14 -19 20 -6 20 5 0 12 -7 15 -16z m-254 -54 c0
-5 -4 -10 -10 -10 -5 0 -10 5 -10 10 0 6 5 10 10 10 6 0 10 -4 10 -10z m-323
-16 c-3 -3 -12 -4 -19 -1 -8 3 -5 6 6 6 11 1 17 -2 13 -5z m27 -63 c3 -5 0
-11 -8 -14 -8 -3 -17 1 -20 9 -6 15 19 20 28 5z m531 -40 c3 -5 1 -12 -5 -16
-5 -3 -10 -1 -10 5 0 7 -7 10 -15 6 -8 -3 -15 -1 -15 4 0 13 37 13 45 1z
m-128 -25 c-5 -12 -1 -12 29 0 50 21 87 -2 98 -61 18 -95 18 -100 -3 -119 -11
-10 -19 -21 -17 -25 2 -3 -7 -6 -20 -6 -13 0 -24 2 -24 4 0 2 14 19 30 38 36
41 37 54 6 90 -22 25 -31 28 -95 30 -62 2 -73 -1 -87 -20 -12 -15 -15 -17 -11
-4 8 22 5 22 -39 -8 -20 -14 -41 -22 -46 -18 -7 3 -5 9 4 14 8 4 32 24 54 44
31 29 45 36 71 33 20 -3 34 1 37 9 3 7 8 13 12 13 3 0 4 -6 1 -14z m-42 -131
c-23 -22 -28 -39 -40 -130 -6 -46 -8 -48 -21 -30 -30 41 -6 136 46 181 33 29
48 8 15 -21z m-65 28 c0 -3 -7 -15 -17 -25 -9 -11 -11 -18 -5 -18 7 0 12 -4
12 -10 0 -5 -6 -7 -14 -4 -15 6 -26 -23 -26 -74 0 -20 -4 -31 -10 -27 -14 9
-12 78 2 112 17 37 58 70 58 46z m-60 -33 c0 -5 -4 -10 -10 -10 -5 0 -10 5
-10 10 0 6 5 10 10 10 6 0 10 -4 10 -10z"/>
<path d="M942 1571 c-12 -10 -22 -22 -22 -26 0 -5 8 -1 18 8 9 9 29 20 42 26
23 9 23 10 4 10 -12 1 -31 -7 -42 -18z"/>
<path d="M1010 1559 c0 -17 -5 -20 -25 -17 -28 6 -36 -16 -10 -26 34 -13 74
41 45 59 -5 3 -10 -4 -10 -16z"/>
<path d="M656 1044 c-3 -9 -6 -28 -5 -42 1 -26 1 -26 8 4 4 17 11 36 15 42 4
7 3 12 -2 12 -6 0 -13 -7 -16 -16z"/>
<path d="M634 929 c-3 -6 -2 -15 3 -20 5 -5 9 -1 9 11 0 23 -2 24 -12 9z"/>
<path d="M615 890 c3 -5 8 -10 11 -10 2 0 4 5 4 10 0 6 -5 10 -11 10 -5 0 -7
-4 -4 -10z"/>
<path d="M831 1778 c-36 -13 -22 -16 39 -8 30 4 48 8 40 10 -39 7 -57 6 -79
-2z"/>
<path d="M571 1559 c-32 -12 -66 -48 -75 -76 -10 -31 -1 -29 33 6 16 16 47 39
70 50 23 12 41 24 41 26 0 8 -43 4 -69 -6z"/>
<path d="M336 1391 c-16 -16 -25 -34 -22 -40 4 -6 1 -11 -6 -11 -7 0 -19 -9
-26 -20 -9 -15 -9 -20 0 -20 7 0 6 -5 -4 -12 -25 -21 -49 -208 -32 -252 3 -9
12 -16 19 -16 9 0 10 11 5 41 -12 63 -4 148 18 206 18 48 71 127 97 145 6 5 4
8 -6 8 -8 0 -28 -13 -43 -29z"/>
<path d="M369 1328 c-48 -49 -62 -91 -65 -203 -2 -89 3 -148 21 -222 3 -13 1
-23 -4 -23 -9 0 -18 24 -35 103 -4 15 -13 27 -21 27 -18 0 -18 3 -4 -77 9 -51
14 -63 27 -58 12 4 13 3 2 -10 -7 -9 -11 -17 -9 -18 2 -1 12 -8 21 -15 14 -12
16 -10 11 10 -3 17 -2 19 5 9 5 -7 14 -11 19 -8 12 8 13 -26 1 -34 -5 -3 0 -9
11 -12 13 -3 19 -1 15 5 -4 6 -1 14 5 18 9 5 9 16 -2 46 -25 65 -50 240 -42
292 11 80 27 121 62 162 41 48 28 53 -18 8z"/>
<path d="M1379 1339 c-14 -5 -31 -21 -37 -34 -10 -22 -9 -24 8 -22 11 2 31 13
45 25 27 23 40 29 30 12 -3 -5 1 -10 9 -10 20 0 21 -16 1 -24 -23 -8 -18 -44
6 -51 17 -6 30 2 59 33 54 60 101 67 120 18 8 -23 -12 -56 -36 -56 -19 0 -23
24 -5 37 14 11 13 12 -7 13 -12 0 -25 -7 -28 -15 -11 -28 16 -45 69 -45 36 0
54 -5 63 -17 20 -26 18 -47 -3 -38 -10 5 -40 12 -68 16 -27 5 -67 11 -87 15
-24 4 -38 2 -38 -4 0 -22 -40 -23 -68 -3 -21 14 -32 17 -40 9 -7 -7 -17 -6
-33 6 -30 21 -70 20 -108 -1 -40 -24 -51 -9 -18 24 22 22 35 27 73 26 26 -1
54 -9 63 -17 25 -23 37 -20 16 4 -38 42 -151 34 -176 -12 -6 -11 -25 -26 -42
-33 -34 -14 -90 -64 -146 -130 -33 -39 -86 -145 -73 -145 4 0 1 -4 -5 -8 -18
-12 -36 -114 -22 -123 8 -4 8 -8 1 -10 -6 -2 -15 -32 -21 -66 -9 -59 -35 -112
-55 -113 -4 0 -22 -12 -40 -26 -17 -14 -47 -36 -66 -48 -20 -13 -34 -30 -33
-40 0 -9 -1 -15 -5 -12 -3 3 -11 -2 -18 -12 -10 -14 -10 -20 4 -35 13 -15 14
-20 3 -27 -10 -6 -9 -9 8 -15 27 -8 27 -25 1 -25 -11 0 -20 -5 -20 -11 0 -6 7
-8 16 -5 8 3 12 2 9 -4 -3 -6 -1 -10 4 -10 6 0 11 -5 11 -11 0 -6 -7 -9 -15
-5 -9 3 -15 0 -15 -8 0 -8 7 -16 15 -20 8 -3 15 -11 15 -17 0 -8 -4 -8 -15 1
-18 15 -20 -1 -2 -19 10 -10 8 -12 -8 -9 -14 2 -19 10 -17 24 3 23 -24 29 -32
7 -8 -20 -22 -16 -34 12 -9 19 -8 26 2 32 12 7 11 11 -2 23 -14 13 -15 12 -9
-3 4 -11 1 -17 -8 -17 -8 0 -15 -7 -15 -15 0 -8 5 -15 12 -15 6 0 8 -3 4 -7
-4 -4 -23 11 -43 32 -20 22 -40 39 -45 38 -12 -4 -10 11 3 24 7 7 2 10 -18 7
-15 -1 -31 3 -35 9 -6 9 -8 9 -8 0 0 -7 -7 -10 -15 -7 -21 8 -19 24 3 24 14 0
15 2 2 9 -8 6 -18 7 -22 5 -5 -3 -11 1 -14 10 -3 8 -11 13 -19 10 -7 -3 -15 2
-18 11 -5 12 -1 14 18 9 20 -5 24 -3 19 9 -3 8 -14 17 -24 20 -21 5 -54 72
-51 102 2 11 0 17 -4 13 -4 -4 -16 -3 -26 3 -15 7 -17 6 -13 -5 3 -8 -1 -16
-11 -18 -14 -2 -12 -8 11 -33 16 -16 38 -50 50 -75 28 -59 64 -94 114 -109 22
-6 40 -18 40 -25 0 -39 134 -132 175 -122 14 4 25 3 25 -2 0 -4 9 -8 20 -9 12
-1 55 -18 96 -37 60 -29 87 -36 135 -36 58 0 60 1 54 23 -6 19 -4 18 18 -7 20
-25 31 -29 70 -29 25 1 62 7 82 13 20 7 49 10 63 7 36 -8 150 12 166 29 8 7
16 11 18 8 3 -2 43 13 89 35 91 42 163 97 155 117 -3 8 0 11 8 8 6 -2 28 15
46 38 19 24 41 50 48 58 85 97 157 282 150 385 -1 17 1 36 5 41 8 14 -10 81
-25 90 -6 4 -17 -1 -24 -11 -11 -15 -11 -21 -1 -33 10 -12 9 -14 -2 -11 -9 3
-23 -10 -36 -36 -40 -74 -50 -89 -78 -113 -15 -13 -25 -28 -22 -33 4 -5 0 -6
-8 -3 -8 3 -18 1 -21 -5 -11 -17 -98 -52 -131 -53 -16 0 -42 5 -57 11 -23 8
-28 8 -28 -3 0 -35 141 -30 214 7 23 11 49 27 58 35 10 8 24 12 33 9 9 -4 15
-1 15 8 0 8 3 14 8 14 20 -3 32 3 32 17 0 8 4 13 10 9 13 -8 1 -35 -17 -35 -8
0 -11 -5 -8 -10 4 -6 3 -10 -2 -9 -4 1 -11 0 -15 -1 -7 -2 -20 -6 -33 -9 -3 0
-1 -10 5 -22 10 -18 9 -19 -7 -11 -13 8 -24 5 -41 -8 -12 -10 -47 -26 -76 -34
-122 -36 -241 -9 -313 70 -40 42 -43 50 -43 100 0 55 14 76 18 27 5 -69 61
-143 108 -143 13 0 24 -4 24 -10 0 -5 5 -10 10 -10 19 0 10 21 -14 29 -66 26
-114 128 -87 187 9 20 9 30 0 40 -9 11 -6 14 17 12 16 -1 39 -8 51 -16 25 -16
50 -10 87 19 23 18 39 68 17 55 -5 -4 -7 3 -4 14 3 13 -5 29 -24 48 -25 26
-28 33 -20 63 15 63 74 90 95 45 9 -21 8 -29 -8 -48 -15 -19 -21 -21 -32 -10
-11 11 -10 16 6 28 18 12 18 14 3 14 -27 0 -32 -29 -9 -52 26 -26 50 -18 65
23 10 26 16 29 37 24 14 -3 32 -7 40 -8 9 -1 15 -12 16 -29 1 -32 1 -32 -25
-16 -29 18 -71 -4 -71 -36 0 -17 9 -28 36 -41 90 -42 186 25 188 132 0 38 -22
69 -38 53 -8 -8 -8 -13 0 -18 21 -14 23 -64 3 -85 -19 -21 -19 -21 -19 14 -1
50 -30 100 -73 128 -25 16 -37 32 -37 47 0 28 -44 64 -77 64 -14 0 -37 -7 -53
-16 -26 -16 -28 -16 -49 5 -23 23 -41 25 -82 10z m-175 -169 c34 -13 34 -47 1
-62 -19 -9 -28 -9 -37 0 -9 9 -8 12 7 12 14 0 16 3 8 11 -15 15 -33 3 -33 -21
0 -13 9 -22 25 -26 27 -7 31 -14 16 -29 -15 -15 -52 -115 -43 -115 5 0 19 23
32 51 27 58 66 94 109 104 35 7 71 -9 71 -32 0 -11 3 -13 13 -5 13 11 67 11
67 0 0 -4 8 -9 18 -12 10 -4 19 -12 20 -19 1 -6 4 -25 8 -40 11 -47 -42 -87
-74 -55 -17 17 -15 26 8 30 26 4 27 22 2 26 -10 2 -30 -8 -45 -22 -15 -14 -31
-26 -35 -26 -18 -1 -48 -14 -54 -24 -6 -8 -8 -8 -8 1 0 7 -12 24 -27 39 -20
20 -30 24 -42 17 -27 -17 -42 -91 -37 -181 6 -92 28 -153 70 -191 32 -30 33
-36 0 -39 -14 -1 -23 2 -19 8 7 12 -19 52 -28 45 -4 -3 -5 -2 -2 1 2 4 -5 24
-16 45 -23 46 -37 137 -33 214 2 36 0 54 -7 49 -6 -4 -9 -61 -8 -155 2 -81 0
-151 -4 -155 -4 -4 -7 -1 -7 6 0 7 -7 22 -17 32 -15 17 -15 18 5 18 18 0 19 3
9 25 -7 14 -15 25 -18 25 -3 0 -4 23 -3 50 2 34 -1 50 -9 50 -8 0 -9 2 -1 8 6
4 14 35 18 70 4 35 16 83 26 108 24 55 10 49 -25 -10 -24 -41 -57 -145 -54
-170 1 -6 1 -29 0 -50 -1 -30 -4 -37 -12 -29 -14 14 -13 179 1 193 18 18 79
150 71 154 -12 8 -82 -76 -76 -92 3 -7 1 -11 -4 -7 -5 3 -16 -14 -25 -37 -25
-72 -29 -91 -17 -84 17 11 13 -5 -5 -19 -13 -9 -17 -35 -21 -115 -2 -58 -6
-106 -8 -108 -2 -2 -9 -1 -16 3 -8 5 -10 32 -7 86 3 53 1 79 -6 79 -7 0 -8 3
-1 8 6 4 16 36 24 71 7 36 23 85 36 110 33 65 115 162 150 177 37 16 38 16 69
4z m100 -24 c9 -13 7 -19 -9 -29 -11 -6 -30 -13 -42 -14 -18 -3 -21 0 -16 14
9 26 35 54 47 50 5 -2 14 -11 20 -21z m138 1 c20 -31 -6 -75 -37 -63 -17 6
-21 27 -4 24 6 -2 14 3 16 10 4 10 -2 13 -18 10 -16 -2 -24 -9 -23 -21 2 -19
-9 -22 -37 -7 -27 15 -24 25 14 49 33 22 75 21 89 -2z m193 -86 c-5 -16 -2
-18 17 -14 l23 5 -24 -21 c-18 -17 -27 -19 -37 -10 -17 14 -18 31 -2 47 18 18
30 14 23 -7z m-400 -119 c-8 -8 -25 10 -19 20 4 6 9 5 15 -3 4 -7 6 -15 4 -17z
m65 -57 c7 -9 8 -15 2 -15 -5 0 -12 7 -16 15 -3 8 -4 15 -2 15 2 0 9 -7 16
-15z m-30 1 c0 -3 -4 -8 -10 -11 -5 -3 -10 -1 -10 4 0 6 5 11 10 11 6 0 10 -2
10 -4z m590 -28 c-11 -10 -21 -18 -22 -18 -2 0 -4 8 -5 18 -1 12 6 17 22 17
23 0 23 0 5 -17z m-40 -23 c0 -8 -4 -15 -10 -15 -5 0 -7 7 -4 15 4 8 8 15 10
15 2 0 4 -7 4 -15z m-568 -37 c-6 -42 5 -74 40 -113 28 -33 97 -78 123 -81 6
0 19 -5 30 -10 25 -11 141 -12 215 -1 47 7 52 6 34 -5 -12 -7 -19 -20 -16 -28
7 -22 25 -31 35 -17 7 9 10 9 14 -1 2 -6 10 -9 16 -5 7 4 5 -1 -3 -12 -8 -10
-13 -19 -11 -19 2 -1 1 -11 -3 -24 -7 -21 -9 -22 -25 -8 -15 14 -17 13 -18 -5
-1 -11 5 -23 13 -26 8 -3 14 -9 14 -14 0 -4 -6 -6 -14 -3 -8 3 -17 1 -21 -5
-3 -6 -1 -11 4 -11 6 0 11 -4 11 -9 0 -5 -8 -8 -17 -7 -11 0 -17 -6 -17 -16 1
-14 -2 -15 -16 -8 -16 9 -18 6 -15 -20 2 -17 0 -30 -5 -30 -6 0 -10 6 -10 13
0 8 -4 7 -10 -3 -5 -8 -10 -11 -10 -6 0 5 -7 3 -15 -4 -8 -6 -19 -9 -24 -5 -6
3 -17 -9 -25 -27 -14 -31 -15 -32 -21 -11 -9 28 -25 31 -18 3 3 -11 0 -20 -6
-20 -18 0 -13 48 7 60 16 11 16 11 0 6 -10 -3 -25 -9 -33 -12 -8 -3 -15 -1
-15 6 0 7 -8 9 -20 5 -11 -4 -20 -2 -20 4 0 17 -21 13 -35 -6 -11 -15 -12 -14
-12 10 0 29 23 43 43 26 10 -8 19 -7 36 5 12 9 18 16 12 16 -5 0 -15 -5 -21
-11 -15 -15 -56 13 -60 41 -3 18 0 19 20 10 20 -10 21 -10 4 3 -14 11 -15 16
-5 20 7 3 -2 8 -19 12 -18 4 -33 12 -33 17 0 6 7 8 15 4 8 -3 15 -1 15 4 0 15
-37 12 -43 -4 -3 -8 3 -22 14 -32 24 -22 24 -29 -1 -54 -27 -27 -58 -26 -69 3
-16 43 -23 73 -13 59 8 -11 13 -12 30 -1 23 14 35 46 22 54 -5 3 -14 -4 -20
-15 -13 -24 -35 -26 -44 -4 -3 8 -10 12 -16 9 -5 -3 -10 -3 -11 2 0 4 -2 16
-4 26 -2 10 3 17 11 17 9 0 12 -4 9 -10 -3 -5 -1 -10 5 -10 6 0 9 -4 5 -9 -3
-5 -1 -12 5 -16 5 -3 10 1 10 11 0 13 7 16 33 11 27 -4 33 -2 33 14 0 10 -5
19 -10 19 -5 0 -6 3 -3 7 4 3 16 -2 27 -12 11 -10 21 -15 21 -12 1 4 2 12 3
19 0 6 7 13 14 16 9 3 12 -3 10 -14 -2 -13 3 -19 19 -20 35 -2 53 -12 63 -36
10 -21 10 -21 5 4 -4 23 -2 26 12 21 11 -4 14 -3 9 5 -4 7 -2 12 3 12 6 0 11
-4 11 -9 0 -5 7 -12 16 -15 12 -5 15 -2 10 11 -6 16 -6 16 12 0 23 -21 43 -22
36 -2 -5 11 -2 13 10 9 9 -3 16 -1 16 5 0 6 -12 11 -26 11 -17 0 -23 -4 -18
-12 6 -10 4 -10 -7 -2 -8 6 -35 15 -62 18 -61 9 -149 50 -179 82 -13 15 -31
35 -40 45 -10 10 -18 22 -18 27 -1 7 -16 68 -26 104 -4 12 1 16 13 15 15 -1
18 -7 15 -29z m628 22 c0 -5 -2 -10 -4 -10 -3 0 -8 5 -11 10 -3 6 -1 10 4 10
6 0 11 -4 11 -10z m0 -34 c0 -2 -7 -7 -16 -10 -8 -3 -12 -2 -9 4 6 10 25 14
25 6z m-829 -82 c7 -8 21 -13 31 -11 22 6 24 -11 2 -20 -14 -5 -13 -9 7 -24
17 -13 19 -19 9 -19 -12 0 -11 -3 3 -11 9 -6 15 -15 11 -21 -8 -13 39 12 48
26 5 7 8 5 8 -6 0 -10 9 -26 21 -37 24 -22 18 -41 -13 -41 -17 0 -18 2 -8 15
9 11 10 19 3 26 -7 7 -15 6 -24 -6 -39 -45 -42 -47 -51 -33 -8 10 -9 10 -6 -1
6 -22 39 -39 45 -23 5 14 23 16 23 2 0 -5 -11 -12 -25 -16 -21 -5 -32 1 -59
29 -19 20 -36 33 -40 30 -3 -4 -6 4 -6 16 0 12 -4 19 -10 16 -5 -3 -10 -1 -10
4 0 6 5 11 10 11 6 0 10 7 10 16 0 8 -4 12 -10 9 -18 -11 -10 14 9 27 13 9 16
19 11 33 -7 18 -8 18 -15 -7 -4 -16 -12 -28 -17 -28 -5 0 -7 6 -4 13 3 6 9 20
12 30 8 21 18 22 35 1z m779 -12 c0 -4 -10 -13 -21 -20 -16 -10 -18 -17 -10
-25 16 -16 14 -37 -3 -37 -8 0 -22 7 -31 16 -14 15 -15 13 -13 -16 1 -17 6
-34 10 -36 4 -3 8 -13 7 -22 0 -11 -2 -12 -6 -4 -2 6 -9 10 -14 7 -5 -4 -6 2
-2 11 4 12 3 15 -5 10 -8 -5 -10 -2 -5 9 3 10 0 21 -8 26 -10 6 -10 9 -1 9 6
0 12 7 12 15 0 8 7 15 15 15 8 0 25 11 37 24 23 25 38 32 38 18z m-850 -101
c16 -16 32 -26 35 -23 3 4 3 -1 -1 -11 -7 -18 -49 -23 -59 -7 -3 5 -30 7 -60
5 -83 -8 -88 22 -9 50 55 20 62 19 94 -14z m300 9 c0 -5 -2 -10 -4 -10 -3 0
-8 5 -11 10 -3 6 -1 10 4 10 6 0 11 -4 11 -10z m30 -20 c0 -5 -4 -10 -10 -10
-5 0 -10 5 -10 10 0 6 5 10 10 10 6 0 10 -4 10 -10z m-459 -50 c10 -6 25 -23
33 -38 17 -34 3 -74 -29 -81 -17 -3 -17 -1 -6 12 21 26 4 57 -30 57 -36 0 -82
-41 -73 -64 3 -9 2 -16 -3 -16 -5 0 -9 -9 -10 -20 -1 -11 2 -20 6 -20 5 0 6
-12 3 -27 -3 -16 1 -30 10 -37 19 -14 33 -56 19 -56 -18 0 -50 60 -61 116 -15
71 10 141 60 166 40 21 54 22 81 8z m191 -17 c75 -42 91 -82 59 -143 -12 -22
-21 -48 -22 -58 0 -9 -2 -12 -5 -7 -2 6 -24 9 -49 7 -54 -5 -58 9 -11 32 19 9
37 23 40 32 9 23 7 54 -3 54 -5 0 -7 -8 -5 -18 6 -19 -29 -62 -51 -62 -20 0
-27 17 -10 24 23 8 18 26 -7 26 -17 0 -19 -3 -10 -9 10 -6 9 -10 -7 -14 -21
-5 -29 -41 -13 -62 12 -17 61 -35 93 -35 16 0 41 -7 54 -16 13 -9 30 -12 36
-8 8 4 9 3 5 -4 -4 -7 8 -19 30 -30 47 -24 33 -33 -29 -17 -41 10 -47 10 -43
-2 4 -8 1 -11 -5 -8 -6 4 -8 13 -5 20 7 18 -31 41 -82 50 -55 9 -85 45 -80 97
l3 37 -33 -21 c-18 -11 -43 -18 -56 -16 -19 4 -22 1 -18 -14 2 -10 12 -18 21
-18 13 0 13 -2 2 -9 -21 -13 71 -105 99 -98 11 3 20 1 20 -4 0 -5 -6 -9 -12
-9 -9 0 -8 -3 2 -10 12 -8 12 -10 -2 -15 -20 -8 -34 -1 -85 46 -70 64 -103
167 -65 205 16 17 17 17 20 -2 2 -10 11 -24 19 -31 20 -16 69 7 78 37 3 11 18
23 33 26 47 10 48 12 5 13 -38 1 -43 4 -41 24 2 19 8 22 50 25 33 2 59 -3 80
-15z m148 -6 c0 -5 9 -17 22 -27 13 -11 19 -19 15 -20 -4 0 -3 -9 3 -20 6 -11
7 -20 3 -19 -20 3 -34 -2 -28 -11 3 -5 1 -10 -6 -10 -9 0 -9 -3 0 -14 6 -7 9
-21 5 -30 -3 -9 -1 -16 5 -16 6 0 11 5 11 11 0 8 5 8 15 -1 12 -10 15 -9 15 6
0 15 4 13 19 -9 10 -16 20 -28 22 -26 2 1 21 -4 42 -10 22 -7 51 -11 66 -8 21
4 28 2 28 -10 0 -24 -115 -10 -182 22 -52 24 -77 45 -56 45 6 0 11 4 11 10 0
6 -9 6 -26 0 -16 -7 -23 -7 -19 0 3 6 -1 10 -9 10 -21 0 -20 16 2 32 10 7 21
21 25 32 4 11 13 16 22 12 13 -4 13 -2 5 14 -5 10 -15 22 -20 25 -13 8 -13 28
1 23 6 -2 10 -7 9 -11z m-10 -36 c0 -5 -11 -8 -25 -8 -14 0 -28 3 -31 8 -3 5
9 9 25 9 17 0 31 -4 31 -9z m20 -175 c0 -3 -7 -2 -17 1 -10 4 -14 2 -9 -5 11
-18 118 -54 143 -47 17 4 21 2 17 -10 -10 -25 -61 -22 -115 5 -53 28 -61 41
-50 88 1 5 31 -26 31 -32z m70 -10 c0 -3 -4 -8 -10 -11 -5 -3 -10 -1 -10 4 0
6 5 11 10 11 6 0 10 -2 10 -4z m290 -6 c0 -5 -4 -10 -10 -10 -5 0 -10 5 -10
10 0 6 5 10 10 10 6 0 10 -4 10 -10z m-102 -22 c-5 -14 -38 -20 -38 -6 0 6 7
8 15 4 8 -3 15 -1 15 4 0 6 3 10 6 10 3 0 4 -5 2 -12z m-73 -8 c3 -5 -1 -10
-9 -10 -8 0 -18 5 -21 10 -3 6 1 10 9 10 8 0 18 -4 21 -10z m-345 -10 c0 -5
-2 -10 -4 -10 -3 0 -8 5 -11 10 -3 6 -1 10 4 10 6 0 11 -4 11 -10z m-50 -10
c0 -5 -5 -10 -11 -10 -5 0 -7 5 -4 10 3 6 8 10 11 10 2 0 4 -4 4 -10z m56 -22
c4 -7 3 -8 -4 -4 -7 4 -12 0 -12 -10 0 -10 -3 -15 -6 -11 -7 6 2 37 10 37 3 0
8 -5 12 -12z m-176 -23 c20 -24 6 -28 -15 -5 -10 11 -13 20 -8 20 6 0 16 -7
23 -15z m477 -7 c-3 -8 -6 -5 -6 6 -1 11 2 17 5 13 3 -3 4 -12 1 -19z m-102
-8 c3 -5 1 -10 -4 -10 -6 0 -11 5 -11 10 0 6 2 10 4 10 3 0 8 -4 11 -10z"/>
<path d="M1261 1041 c-6 -11 -11 -24 -11 -30 0 -16 30 -41 50 -41 26 0 74 43
67 61 -4 10 -7 9 -12 -6 -9 -29 -36 -44 -63 -34 -29 11 -31 43 -1 34 17 -6 20
-3 17 11 -5 26 -35 29 -47 5z"/>
<path d="M1640 555 c0 -18 -16 -20 -23 -2 -3 6 -6 0 -6 -15 -1 -30 9 -34 40
-18 22 13 26 50 4 50 -8 0 -15 -7 -15 -15z"/>
<path d="M1255 490 c-3 -5 -1 -10 4 -10 6 0 11 5 11 10 0 6 -2 10 -4 10 -3 0
-8 -4 -11 -10z"/>
<path d="M1581 414 c0 -11 3 -14 6 -6 3 7 2 16 -1 19 -3 4 -6 -2 -5 -13z"/>
<path d="M1044 609 c-9 -15 15 -35 51 -42 30 -6 30 -6 5 6 -48 23 -54 29 -39
38 10 6 10 9 2 9 -6 0 -15 -5 -19 -11z"/>
<path d="M1017 461 c23 -22 39 -28 28 -11 -3 5 -16 15 -28 21 l-22 11 22 -21z"/>
<path d="M408 1258 c-20 -32 -38 -108 -38 -164 0 -57 6 -55 14 6 13 99 19 126
34 148 8 12 12 25 10 28 -3 2 -12 -6 -20 -18z"/>
<path d="M1070 1224 c0 -8 5 -12 10 -9 6 3 10 10 10 16 0 5 -4 9 -10 9 -5 0
-10 -7 -10 -16z"/>
<path d="M1526 905 c-3 -9 0 -15 9 -15 8 0 15 7 15 15 0 8 -4 15 -9 15 -5 0
-11 -7 -15 -15z"/>
<path d="M1442 810 c-13 -22 -1 -60 19 -60 22 0 49 22 49 40 0 18 -26 40 -47
40 -4 0 -14 -9 -21 -20z m48 -9 c0 -13 -26 -32 -33 -24 -14 13 -6 33 13 33 11
0 20 -4 20 -9z"/>
<path d="M1574 779 c-8 -14 18 -31 30 -19 9 9 0 30 -14 30 -5 0 -12 -5 -16
-11z"/>
<path d="M425 701 c-3 -5 -2 -12 3 -15 5 -3 9 1 9 9 0 17 -3 19 -12 6z"/>
<path d="M680 665 c7 -8 16 -12 21 -9 13 8 1 24 -18 24 -13 0 -13 -3 -3 -15z"/>
<path d="M340 532 c0 -4 4 -13 9 -20 7 -11 9 -11 14 1 3 9 -1 18 -9 21 -8 3
-14 2 -14 -2z"/>
<path d="M641 354 c0 -11 3 -14 6 -6 3 7 2 16 -1 19 -3 4 -6 -2 -5 -13z"/>
</g>
</svg>
